<svg width="500.000000" height="373.000000" viewBox="0 0 500 373" fill="none" xmlns="http://www.w3.org/2000/svg" xmlns:xlink="http://www.w3.org/1999/xlink">
	<desc>
			Created with Pixso.
	</desc>
	<defs>
		<clipPath id="clip0_6930">
			<rect id="Illustration" rx="0.000000" width="499.000000" height="372.000000" transform="translate(0.500000 0.500000)" fill="white" fillOpacity="0"/>
		</clipPath>
	</defs>
	<g opacity="0.917411" style="mix-blend-mode:normal">
		<rect id="Illustration" rx="0.000000" width="499.000000" height="372.000000" transform="translate(0.500000 0.500000)" fill="#FFFFFF" fillOpacity="0"/>
		<g clip-path="url(#clip0_6930)">
			<mask id="mask0_6932" mask-type="alpha" maskUnits="userSpaceOnUse" x="0.000000" y="327.000000" width="500.000000" height="1.000000">
				<path id="Clip 2" d="M0 327L500 327L500 328L0 328L0 327Z" fill="#000000" fillOpacity="1.000000" fillRule="evenodd"/>
			</mask>
			<g mask="url(#mask0_6932)">
				<path id="Fill 1" d="M0 327.62L500 327.62L500 327.37L0 327.37L0 327.62Z" fill="#E4E4DE" fillOpacity="1.000000" fillRule="evenodd"/>
			</g>
			<path id="Fill 4" d="M397 343.62L450 343.62L450 343.37L397 343.37L397 343.62Z" fill="#E4E4DE" fillOpacity="1.000000" fillRule="evenodd"/>
			<path id="Fill 5" d="M273 340.62L332 340.62L332 340.37L273 340.37L273 340.62Z" fill="#E4E4DE" fillOpacity="1.000000" fillRule="evenodd"/>
			<path id="Fill 6" d="M380 339.62L399 339.62L399 339.37L380 339.37L380 339.62Z" fill="#E4E4DE" fillOpacity="1.000000" fillRule="evenodd"/>
			<path id="Fill 7" d="M100 336.62L143 336.62L143 336.37L100 336.37L100 336.62Z" fill="#D0D9E6" fillOpacity="1.000000" fillRule="evenodd"/>
			<path id="Fill 8" d="M79 336.62L94 336.62L94 336.37L79 336.37L79 336.62Z" fill="#D0D9E6" fillOpacity="1.000000" fillRule="evenodd"/>
			<path id="Fill 9" d="M131 340.62L185 340.62L185 340.37L131 340.37L131 340.62Z" fill="#D0D9E6" fillOpacity="1.000000" fillRule="evenodd"/>
			<path id="Fill 11" d="M43.708 282.847L236.807 282.847C239.953 282.847 242.514 280.287 242.514 277.139L242.514 5.70801C242.514 2.56104 239.953 0 236.807 0L43.708 0C40.5601 0 38 2.56104 38 5.70801L38 277.139C38 280.287 40.5601 282.847 43.708 282.847ZM38.25 5.70801C38.25 2.69922 40.6982 0.25 43.708 0.25L236.807 0.25C239.815 0.25 242.264 2.69922 242.264 5.70801L242.264 277.139C242.264 280.149 239.815 282.597 236.807 282.597L43.708 282.597C40.6982 282.597 38.25 280.149 38.25 277.139L38.25 5.70801Z" clipRule="evenodd" fill="#D0D9E6" fillOpacity="1.000000" fillRule="evenodd"/>
			<path id="Fill 12" d="M260.707 282.847L453.806 282.847C456.953 282.847 459.514 280.287 459.514 277.139L459.514 5.70801C459.514 2.56104 456.953 0 453.806 0L260.707 0C257.56 0 255 2.56104 255 5.70801L255 277.139C255 280.287 257.56 282.847 260.707 282.847ZM255.25 5.70801C255.25 2.69922 257.698 0.25 260.707 0.25L453.806 0.25C456.815 0.25 459.264 2.69922 459.264 5.70801L459.264 277.139C459.264 280.149 456.815 282.597 453.806 282.597L260.707 282.597C257.698 282.597 255.25 280.149 255.25 277.139L255.25 5.70801Z" clipRule="evenodd" fill="#D0D9E6" fillOpacity="1.000000" fillRule="evenodd"/>
			<path id="Fill 14" d="M117.87 267L57.12 267C54.3 267 52 264.77 52 262.06L52 259.93C52 257.22 54.3 255 57.12 255L117.87 255C120.69 255 123 257.22 123 259.93L123 262.06C123 264.77 120.69 267 117.87 267Z" fill="#E3ECFA" fillOpacity="1.000000" fillRule="evenodd"/>
			<path id="Fill 15" d="M71 267L61.17 267L50 327L59.82 327L71 267Z" fill="#DAE2F0" fillOpacity="1.000000" fillRule="evenodd"/>
			<path id="Fill 16" d="M92 267L81.74 267L76 327L86.25 327L92 267Z" fill="#DAE2F0" fillOpacity="1.000000" fillRule="evenodd"/>
			<path id="Fill 17" d="M103 267L112.82 267L124 327L114.17 327L103 267Z" fill="#DAE2F0" fillOpacity="1.000000" fillRule="evenodd"/>
			<path id="Fill 18" d="M197 220L431 220L431 16L197 16L197 220Z" fill="#DAE2F0" fillOpacity="1.000000" fillRule="evenodd"/>
			<path id="Fill 19" d="M200 220L437 220L437 16L200 16L200 220Z" fill="#E3ECFA" fillOpacity="1.000000" fillRule="evenodd"/>
			<path id="Fill 20" d="M197 223L431 223L431 219L197 219L197 223Z" fill="#DDDED8" fillOpacity="1.000000" fillRule="evenodd"/>
			<path id="Fill 21" d="M204 223L441 223L441 219L204 219L204 223Z" fill="#DAE2F0" fillOpacity="1.000000" fillRule="evenodd"/>
			<path id="Fill 22" d="M210 213L428 213L428 22L210 22L210 213Z" fill="#FCFEFF" fillOpacity="1.000000" fillRule="evenodd"/>
			<path id="Fill 23" d="M280 213L320.9 22L348 22L307.09 213L280 213Z" fill="#FFFFFE" fillOpacity="1.000000" fillRule="evenodd"/>
			<path id="Fill 24" d="M248 213L288.9 22L316 22L275.09 213L248 213Z" fill="#FFFFFE" fillOpacity="1.000000" fillRule="evenodd"/>
			<path id="Fill 25" d="M215 22.51L215 200.48C215 200.76 215.4 201 215.9 201L217.09 201C217.59 201 218 200.76 218 200.48L218 22.51C218 22.23 217.59 22 217.09 22L215.9 22C215.4 22 215 22.23 215 22.51Z" fill="#EAEAE5" fillOpacity="1.000000" fillRule="evenodd"/>
			<path id="Fill 26" d="M350 213L391.32 22L402 22L360.67 213L350 213Z" fill="#FFFFFE" fillOpacity="1.000000" fillRule="evenodd"/>
			<path id="Fill 27" d="M427 213L428 213L428 22L427 22L427 213Z" fill="#DAE2F0" fillOpacity="1.000000" fillRule="evenodd"/>
			<path id="Fill 28" d="M440 29L438 29L438 24L439.22 24L440 29Z" fill="#E3ECFA" fillOpacity="1.000000" fillRule="evenodd"/>
			<path id="Fill 29" d="M428 29L438 29L438 24L428 24L428 29Z" fill="#DAE2F0" fillOpacity="1.000000" fillRule="evenodd"/>
			<path id="Fill 30" d="M378.266 29.4609L389.348 29.4609L390.522 24L378 24L378.266 29.4609ZM399.949 29.4609L426.981 29.4609L426.981 24L401.123 24L399.949 29.4609Z" clipRule="evenodd" fill="#E3ECFA" fillOpacity="1.000000" fillRule="evenodd"/>
			<path id="Fill 31" d="M399.8 29L389 29L390.19 24L401 24L399.8 29Z" fill="#EBF3FF" fillOpacity="1.000000" fillRule="evenodd"/>
			<path id="Fill 32" d="M427 29L428 29L428 24L427 24L427 29Z" fill="#CCD3E0" fillOpacity="1.000000" fillRule="evenodd"/>
			<path id="Fill 33" d="M440 48L438 48L438 43L439.22 43L440 48Z" fill="#E3ECFA" fillOpacity="1.000000" fillRule="evenodd"/>
			<path id="Fill 34" d="M428 48L438 48L438 43L428 43L428 48Z" fill="#DAE2F0" fillOpacity="1.000000" fillRule="evenodd"/>
			<path id="Fill 35" d="M379.266 48.4609L385.408 48.4609L386.582 43L379 43L379.266 48.4609ZM396.008 48.4609L427.069 48.4609L427.069 43L397.182 43L396.008 48.4609Z" clipRule="evenodd" fill="#E3ECFA" fillOpacity="1.000000" fillRule="evenodd"/>
			<path id="Fill 36" d="M395.8 48L385 48L386.19 43L397 43L395.8 48Z" fill="#EBF3FF" fillOpacity="1.000000" fillRule="evenodd"/>
			<path id="Fill 37" d="M427 48L428 48L428 43L427 43L427 48Z" fill="#CCD3E0" fillOpacity="1.000000" fillRule="evenodd"/>
			<path id="Fill 38" d="M440 67L438 67L438 62L439.22 62L440 67Z" fill="#E3ECFA" fillOpacity="1.000000" fillRule="evenodd"/>
			<path id="Fill 39" d="M428 67L438 67L438 62L428 62L428 67Z" fill="#DAE2F0" fillOpacity="1.000000" fillRule="evenodd"/>
			<path id="Fill 40" d="M380.266 67.4609L381.466 67.4609L382.641 62L380 62L380.266 67.4609ZM392.067 67.4609L427.156 67.4609L427.156 62L393.241 62L392.067 67.4609Z" clipRule="evenodd" fill="#E3ECFA" fillOpacity="1.000000" fillRule="evenodd"/>
			<path id="Fill 41" d="M391.8 67L381 67L382.19 62L393 62L391.8 67Z" fill="#EBF3FF" fillOpacity="1.000000" fillRule="evenodd"/>
			<path id="Fill 42" d="M427 67L428 67L428 62L427 62L427 67Z" fill="#CCD3E0" fillOpacity="1.000000" fillRule="evenodd"/>
			<path id="Fill 43" d="M440 86L438 86L438 81L439.22 81L440 86Z" fill="#E3ECFA" fillOpacity="1.000000" fillRule="evenodd"/>
			<path id="Fill 44" d="M428 86L438 86L438 81L428 81L428 86Z" fill="#DAE2F0" fillOpacity="1.000000" fillRule="evenodd"/>
			<path id="Fill 45" d="M427 86L388 86L389.17 81L427 81L427 86Z" fill="#E3ECFA" fillOpacity="1.000000" fillRule="evenodd"/>
			<path id="Fill 46" d="M387.86 86L381.25 86L381 81L389 81L387.86 86Z" fill="#EBF3FF" fillOpacity="1.000000" fillRule="evenodd"/>
			<path id="Fill 47" d="M427 86L428 86L428 81L427 81L427 86Z" fill="#CCD3E0" fillOpacity="1.000000" fillRule="evenodd"/>
			<path id="Fill 48" d="M440 104L438 104L438 99L439.22 99L440 104Z" fill="#E3ECFA" fillOpacity="1.000000" fillRule="evenodd"/>
			<path id="Fill 49" d="M428 104L438 104L438 99L428 99L428 104Z" fill="#DAE2F0" fillOpacity="1.000000" fillRule="evenodd"/>
			<path id="Fill 50" d="M427 104L384 104L385.17 99L427 99L427 104Z" fill="#E3ECFA" fillOpacity="1.000000" fillRule="evenodd"/>
			<path id="Fill 51" d="M382.95 104L381.23 104L381 99L384 99L382.95 104Z" fill="#EBF3FF" fillOpacity="1.000000" fillRule="evenodd"/>
			<path id="Fill 52" d="M427 104L428 104L428 99L427 99L427 104Z" fill="#CCD3E0" fillOpacity="1.000000" fillRule="evenodd"/>
			<path id="Fill 53" d="M440 123L438 123L438 118L439.22 118L440 123Z" fill="#E3ECFA" fillOpacity="1.000000" fillRule="evenodd"/>
			<path id="Fill 54" d="M428 123L438 123L438 118L428 118L428 123Z" fill="#DAE2F0" fillOpacity="1.000000" fillRule="evenodd"/>
			<path id="Fill 55" d="M426 123L384.11 123C383.61 122.22 382.93 121.19 382.1 120.02L382 118L426 118L426 123Z" fill="#E3ECFA" fillOpacity="1.000000" fillRule="evenodd"/>
			<path id="Fill 56" d="M427 123L428 123L428 118L427 118L427 123Z" fill="#CCD3E0" fillOpacity="1.000000" fillRule="evenodd"/>
			<path id="Fill 57" d="M440 39L438 39L438 34L439.22 34L440 39Z" fill="#E3ECFA" fillOpacity="1.000000" fillRule="evenodd"/>
			<path id="Fill 58" d="M428 39L438 39L438 34L428 34L428 39Z" fill="#DAE2F0" fillOpacity="1.000000" fillRule="evenodd"/>
			<path id="Fill 59" d="M378.266 39.4609L386.878 39.4609L388.052 34L378 34L378.266 39.4609ZM397.479 39.4609L426.525 39.4609L426.525 34L398.653 34L397.479 39.4609Z" clipRule="evenodd" fill="#E3ECFA" fillOpacity="1.000000" fillRule="evenodd"/>
			<path id="Fill 60" d="M397.8 39L387 39L388.19 34L399 34L397.8 39Z" fill="#EBF3FF" fillOpacity="1.000000" fillRule="evenodd"/>
			<path id="Fill 61" d="M427 39L428 39L428 34L427 34L427 39Z" fill="#CCD3E0" fillOpacity="1.000000" fillRule="evenodd"/>
			<path id="Fill 62" d="M440 58L438 58L438 53L439.22 53L440 58Z" fill="#E3ECFA" fillOpacity="1.000000" fillRule="evenodd"/>
			<path id="Fill 63" d="M428 58L438 58L438 53L428 53L428 58Z" fill="#DAE2F0" fillOpacity="1.000000" fillRule="evenodd"/>
			<path id="Fill 64" d="M379.265 58.4609L382.936 58.4609L384.111 53L379 53L379.265 58.4609ZM393.537 58.4609L426.612 58.4609L426.612 53L394.711 53L393.537 58.4609Z" clipRule="evenodd" fill="#E3ECFA" fillOpacity="1.000000" fillRule="evenodd"/>
			<path id="Fill 65" d="M393.8 58L383 58L384.19 53L395 53L393.8 58Z" fill="#EBF3FF" fillOpacity="1.000000" fillRule="evenodd"/>
			<path id="Fill 66" d="M427 58L428 58L428 53L427 53L427 58Z" fill="#CCD3E0" fillOpacity="1.000000" fillRule="evenodd"/>
			<path id="Fill 67" d="M440 76L438 76L438 71L439.22 71L440 76Z" fill="#E3ECFA" fillOpacity="1.000000" fillRule="evenodd"/>
			<path id="Fill 68" d="M428 76L438 76L438 71L428 71L428 76Z" fill="#DAE2F0" fillOpacity="1.000000" fillRule="evenodd"/>
			<path id="Fill 69" d="M380 71L380.031 71.646L380.17 71L380 71ZM389.597 76.4609L426.7 76.4609L426.7 71L390.771 71L389.597 76.4609Z" clipRule="evenodd" fill="#E3ECFA" fillOpacity="1.000000" fillRule="evenodd"/>
			<path id="Fill 70" d="M389.79 76L380.24 76L380 71.59L380.14 71L391 71L389.79 76Z" fill="#EBF3FF" fillOpacity="1.000000" fillRule="evenodd"/>
			<path id="Fill 71" d="M427 76L428 76L428 71L427 71L427 76Z" fill="#CCD3E0" fillOpacity="1.000000" fillRule="evenodd"/>
			<path id="Fill 72" d="M440 95L438 95L438 90L439.22 90L440 95Z" fill="#E3ECFA" fillOpacity="1.000000" fillRule="evenodd"/>
			<path id="Fill 73" d="M428 95L438 95L438 90L428 90L428 95Z" fill="#DAE2F0" fillOpacity="1.000000" fillRule="evenodd"/>
			<path id="Fill 74" d="M427 95L386 95L387.17 90L427 90L427 95Z" fill="#E3ECFA" fillOpacity="1.000000" fillRule="evenodd"/>
			<path id="Fill 75" d="M385.79 95L381.27 95L381 90L387 90L385.79 95Z" fill="#EBF3FF" fillOpacity="1.000000" fillRule="evenodd"/>
			<path id="Fill 76" d="M427 95L428 95L428 90L427 90L427 95Z" fill="#CCD3E0" fillOpacity="1.000000" fillRule="evenodd"/>
			<path id="Fill 77" d="M440 114L438 114L438 109L439.22 109L440 114Z" fill="#E3ECFA" fillOpacity="1.000000" fillRule="evenodd"/>
			<path id="Fill 78" d="M428 114L438 114L438 109L428 109L428 114Z" fill="#DAE2F0" fillOpacity="1.000000" fillRule="evenodd"/>
			<path id="Fill 79" d="M427 114L382.1 114L382 112.08L382.73 109L427 109L427 114Z" fill="#E3ECFA" fillOpacity="1.000000" fillRule="evenodd"/>
			<path id="Fill 80" d="M382.21 112L382.05 109L382.94 109L382.21 112Z" fill="#E9E9E4" fillOpacity="1.000000" fillRule="evenodd"/>
			<path id="Fill 81" d="M427 114L428 114L428 109L427 109L427 114Z" fill="#CCD3E0" fillOpacity="1.000000" fillRule="evenodd"/>
			<path id="Fill 82" d="M440 133L438 133L438 128L439.22 128L440 133Z" fill="#E3ECFA" fillOpacity="1.000000" fillRule="evenodd"/>
			<path id="Fill 83" d="M428 133L438 133L438 128L428 128L428 133Z" fill="#DAE2F0" fillOpacity="1.000000" fillRule="evenodd"/>
			<path id="Fill 84" d="M426 133L387.04 133C386.66 132.3 386.26 131.62 385.86 130.95C385.27 129.94 384.64 128.96 384 128L426 128L426 133Z" fill="#E3ECFA" fillOpacity="1.000000" fillRule="evenodd"/>
			<path id="Fill 85" d="M427 133L428 133L428 128L427 128L427 133Z" fill="#CCD3E0" fillOpacity="1.000000" fillRule="evenodd"/>
			<path id="Fill 86" d="M400 328L431 328L431 235L400 235L400 328Z" fill="#DDDED8" fillOpacity="1.000000" fillRule="evenodd"/>
			<path id="Fill 87" d="M411.96 328L431 328L431 317L392 317L411.96 328Z" fill="#E3ECFA" fillOpacity="1.000000" fillRule="evenodd"/>
			<path id="Fill 88" d="M307 328L338 328L338 235L307 235L307 328Z" fill="#DAE2F0" fillOpacity="1.000000" fillRule="evenodd"/>
			<path id="Fill 89" d="M322 326L431 326L431 235L322 235L322 326Z" fill="#E3ECFA" fillOpacity="1.000000" fillRule="evenodd"/>
			<path id="Fill 90" d="M341.03 328L322 328L322 317L361 317L341.03 328Z" fill="#E3ECFA" fillOpacity="1.000000" fillRule="evenodd"/>
			<path id="Fill 91" d="M336 292L416 292L416 245L336 245L336 292Z" fill="#FCFEFF" fillOpacity="1.000000" fillRule="evenodd"/>
			<path id="Fill 92" d="M336 319L416 319L416 297L336 297L336 319Z" fill="#FCFEFF" fillOpacity="1.000000" fillRule="evenodd"/>
			<path id="Fill 93" d="M382.79 247L368.2 247C365.88 247 364 245.21 364 243L387 243C387 245.21 385.11 247 382.79 247Z" fill="#E4E4DE" fillOpacity="1.000000" fillRule="evenodd"/>
			<path id="Fill 94" d="M382.79 299L368.2 299C365.88 299 364 297.2 364 295L387 295C387 297.2 385.11 299 382.79 299Z" fill="#E3ECFA" fillOpacity="1.000000" fillRule="evenodd"/>
			<path id="Fill 95" d="M282 328L313 328L313 235L282 235L282 328Z" fill="#E3ECFA" fillOpacity="1.000000" fillRule="evenodd"/>
			<path id="Fill 96" d="M294.96 328L314 328L314 317L275 317L294.96 328Z" fill="#E3ECFA" fillOpacity="1.000000" fillRule="evenodd"/>
			<path id="Fill 97" d="M190 328L221 328L221 235L190 235L190 328Z" fill="#DAE2F0" fillOpacity="1.000000" fillRule="evenodd"/>
			<path id="Fill 98" d="M204 326L313 326L313 235L204 235L204 326Z" fill="#E3ECFA" fillOpacity="1.000000" fillRule="evenodd"/>
			<path id="Fill 99" d="M223.04 328L204 328L204 317L243 317L223.04 328Z" fill="#E3ECFA" fillOpacity="1.000000" fillRule="evenodd"/>
			<path id="Fill 100" d="M219 292L299 292L299 245L219 245L219 292Z" fill="#FCFEFF" fillOpacity="1.000000" fillRule="evenodd"/>
			<path id="Fill 101" d="M219 319L299 319L299 297L219 297L219 319Z" fill="#FCFEFF" fillOpacity="1.000000" fillRule="evenodd"/>
			<path id="Fill 102" d="M265.79 247L251.2 247C248.88 247 247 245.21 247 243L270 243C270 245.21 268.11 247 265.79 247Z" fill="#E4E4DE" fillOpacity="1.000000" fillRule="evenodd"/>
			<path id="Fill 103" d="M265.79 299L251.2 299C248.88 299 247 297.2 247 295L270 295C270 297.2 268.11 299 265.79 299Z" fill="#E3ECFA" fillOpacity="1.000000" fillRule="evenodd"/>
			<path id="Fill 104" d="M204 235L430 235L430 231L204 231L204 235Z" fill="#DAE2F0" fillOpacity="1.000000" fillRule="evenodd"/>
			<path id="Fill 105" d="M190 235L205 235L205 231L190 231L190 235Z" fill="#D4D5CF" fillOpacity="1.000000" fillRule="evenodd"/>
			<path id="Fill 106" d="M84.67 240.72C83.23 204.19 81.68 167.88 84.84 149.56L90 146C90 146 88.87 149.41 88.27 205.37C87.86 244.26 87.38 242.15 87.34 240.04C87.32 239.11 87.38 238.18 87.58 240.72L84.67 240.72Z" fill="#DDDED8" fillOpacity="1.000000" fillRule="evenodd"/>
			<path id="Fill 107" d="M92.52 110.72C100.22 90.55 118.15 71.07 137.63 63.1C145.28 59.97 134.26 128.77 106.53 133.21C92.99 135.37 88.77 170.24 86.49 187C85.71 154.04 84.83 130.9 92.52 110.72Z" fill="#DDDED8" fillOpacity="1.000000" fillRule="evenodd"/>
			<path id="Fill 108" d="M90.44 161.6C95.85 153.02 104.69 141.01 117.61 141C132.25 140.98 119.43 165.11 102.22 172.82C93.82 176.58 86.81 188.52 85 196C85.15 180.85 85.03 170.18 90.44 161.6Z" fill="#DDDED8" fillOpacity="1.000000" fillRule="evenodd"/>
			<path id="Fill 109" d="M77.5 136.29C68.07 119.58 47.06 102.77 24.68 95.13C15.9 92.12 15.03 141.63 62.39 153.47C77.69 157.3 83.82 184.38 87 198C86.73 171.55 86.93 153 77.5 136.29Z" fill="#DAE2F0" fillOpacity="1.000000" fillRule="evenodd"/>
			<path id="Fill 110" d="M83.48 175.93C77.41 165.31 60.92 160.12 46.09 161.12C40.26 161.5 39.63 183.29 72.02 191.71C81.85 194.26 85.81 211.35 87.85 220C87.68 203.19 89.55 186.55 83.48 175.93Z" fill="#DAE2F0" fillOpacity="1.000000" fillRule="evenodd"/>
			<path id="Fill 111" d="M83.13 119.14C78.44 104.13 64.6 90.69 51.89 85.13C46.91 82.95 45.37 107.82 72.64 132.18C80.9 139.57 83.51 161.08 84.86 172C85.48 152.52 87.83 134.14 83.13 119.14Z" fill="#DAE2F0" fillOpacity="1.000000" fillRule="evenodd"/>
			<path id="Fill 112" d="M86.5 255C76.5 255 68.24 254.27 67.66 240.74L66 223L107 223L105.33 240.74C104.76 254.27 96.49 255 86.5 255Z" fill="#E3ECFA" fillOpacity="1.000000" fillRule="evenodd"/>
			<path id="Fill 113" d="M105.83 230L65.16 230L64 222L107 222L105.83 230Z" fill="#E3ECFA" fillOpacity="1.000000" fillRule="evenodd"/>
			<g opacity="0.601028" style="mix-blend-mode:normal">
				<path id="Fill 115" d="M444 361.5C444 367.85 357.14 373 250 373C142.85 373 56 367.85 56 361.5C56 355.14 142.85 350 250 350C357.14 350 444 355.14 444 361.5Z" fill="#E3ECFA" fillOpacity="1.000000" fillRule="evenodd"/>
			</g>
			<path id="Fill 117" d="M72.99 63L72 43.04L73 43L74 62.95L72.99 63Z" fill="#3F8CFF" fillOpacity="1.000000" fillRule="evenodd"/>
			<path id="Fill 118" d="M73.32 80L73 70.04L73.67 70L74 79.95L73.32 80Z" fill="#3F8CFF" fillOpacity="1.000000" fillRule="evenodd"/>
			<path id="Fill 119" d="M86.52 247C85.57 247 84.8 246.25 84.75 245.31L74 23.86C73.95 22.84 74.76 22 75.77 22L375.47 22C376.42 22 377.19 22.74 377.24 23.68L387.99 245.13C388.04 246.15 387.23 247 386.22 247L86.52 247Z" fill="#3F8CFF" fillOpacity="1.000000" fillRule="evenodd"/>
			<path id="Fill 120" d="M366.764 243.367L90.1831 243.367C89.2373 243.367 88.458 242.625 88.4131 241.681L78.002 27.8589C77.9531 26.8481 78.7603 26 79.7729 26L372.583 26C373.529 26 374.308 26.7422 374.354 27.687L378.614 115.172C376.533 112.555 374.201 110.113 371.958 108.804C370.359 107.747 368.465 107.085 366.405 106.972C366.264 106.964 366.124 106.957 365.983 106.95C362.345 103.437 363.062 96.145 364.161 90.8809L353.125 97.0342C353.963 100.565 354.058 104.842 351.181 106.838C350.631 106.87 350.11 106.907 349.623 106.951C347.816 107.115 346.041 107.376 344.459 107.655C344.06 107.726 343.668 107.819 343.286 107.934C341.733 108.366 340.016 109.235 338.154 110.637C330.511 116.393 324.836 128.587 324.836 128.587L326.648 129.581C324.965 131.435 323.216 133.247 321.407 135.026C319.426 136.963 317.441 138.802 315.285 140.818C315.227 140.824 315.167 140.83 315.103 140.834C315.033 140.838 314.96 140.84 314.884 140.84C314.414 140.84 313.834 140.764 313.209 140.605C312.193 140.353 311.076 139.936 309.94 139.412C310.005 138.166 310.062 136.926 310.11 135.705L319.24 135.406C319.769 130.497 319.045 122.322 317.821 113.854C316.776 104.985 314.986 94.8862 313.08 84.5972L303.971 85.1748L301.714 38.812C301.689 38.3242 301.261 37.9482 300.801 37.9482C300.789 37.9482 300.776 37.9492 300.763 37.9492C300.263 37.9741 299.877 38.3989 299.901 38.8989L302.16 85.29L264.835 87.6611C264.95 88.166 265.064 88.6709 265.177 89.1738L265.176 89.1738C265.178 89.1821 265.18 89.1899 265.182 89.1992C265.361 89.9971 265.537 90.793 265.711 91.5859C267.162 98.2881 268.283 104.824 269.094 111.073L263.009 110.12C263.106 128.098 261.173 144.556 258.027 157.49L306.115 166.508L309.233 230.556C309.257 231.041 309.658 231.419 310.138 231.419L310.183 231.418C310.683 231.394 311.07 230.968 311.046 230.468L307.66 160.937C308.334 157.429 308.867 153.226 309.273 148.795C309.595 148.943 309.925 149.085 310.264 149.222C311.499 149.71 312.871 150.12 314.441 150.3C314.877 150.351 315.334 150.379 315.805 150.379C317.017 150.379 318.324 150.192 319.614 149.728L320.287 149.485L321.11 148.808C323.429 146.899 326.053 144.817 328.485 142.634C330.616 140.751 332.699 138.781 334.699 136.71C334.712 137.792 334.735 138.913 334.769 140.077C334.782 140.63 334.802 141.2 334.825 141.784C335.11 149.631 335.858 159.284 337.307 171.14L344.78 171.14L342.209 179.771L347.579 181.37C347.557 181.517 347.534 181.664 347.512 181.811L353.296 183.072L353.573 183.155C356.716 197.592 362.015 221.887 365.587 238.049C366.005 239.943 366.4 241.726 366.764 243.367ZM161.052 230.556L160.008 209.112L137.616 211.388C136.238 197.933 136.03 182.056 131.062 164.538L157.684 161.375L156.112 129.084L115.319 131.283C112.535 114.587 111.364 95.9111 111.468 82.0801L153.744 80.4482L151.721 38.8989C151.697 38.3989 152.084 37.9741 152.584 37.9492C152.597 37.9492 152.609 37.9482 152.622 37.9482C153.089 37.9482 153.509 38.3242 153.534 38.812L155.558 80.3779L158.65 80.2588C159.194 95.3369 161.054 111.674 163.612 128.68L157.924 128.986L159.491 161.16L177.779 158.987C181.224 168.82 187.034 195.056 187.162 206.353L161.816 208.928L162.865 230.468C162.889 230.968 162.503 231.394 162.003 231.418L161.958 231.419C161.477 231.419 161.077 231.041 161.052 230.556ZM175.885 95.373L175.883 143.501L224.428 146.43L224.43 98.3018L175.885 95.373ZM379.867 140.919L375.281 139.919C375.324 138.491 375.38 137.035 375.453 135.558L376.222 134.773C377.549 136.758 378.784 138.77 379.861 140.801L379.867 140.919ZM316.052 140.579L315.934 140.652C315.981 140.628 316.02 140.604 316.052 140.579ZM379.443 190.859C380.64 197.428 382.013 205.059 383.367 212.804L382.341 191.722L379.443 190.859Z" clipRule="evenodd" fill="#F4F9FD" fillOpacity="1.000000" fillRule="evenodd"/>
			<path id="To Do" d="M102.09 44.96L104.7 44.91L104.82 52.04L106.33 52.01L106.21 44.88L108.81 44.84L108.79 43.47L102.07 43.59L102.09 44.96ZM122.71 43.23L119.36 43.29L119.51 51.78L122.68 51.73C123.19 51.72 123.71 51.62 124.23 51.45C124.77 51.26 125.24 50.99 125.67 50.64C126.1 50.28 126.45 49.84 126.72 49.3C126.99 48.76 127.12 48.13 127.1 47.4Q127.08 46.32 126.71 45.54Q126.34 44.74 125.73 44.22C125.32 43.88 124.86 43.62 124.33 43.46C123.81 43.3 123.27 43.22 122.71 43.23ZM123.45 50.19C123.04 50.3 122.6 50.36 122.13 50.37L121 50.39L120.9 44.63L122.28 44.6Q122.97 44.59 123.55 44.75C123.95 44.85 124.28 45.01 124.57 45.24C124.86 45.46 125.09 45.75 125.26 46.11C125.42 46.48 125.51 46.92 125.52 47.43C125.53 47.95 125.44 48.39 125.27 48.76C125.1 49.13 124.86 49.43 124.55 49.67C124.24 49.89 123.88 50.07 123.45 50.19ZM108.38 47.86C108.23 48.23 108.16 48.64 108.17 49.1C108.17 49.56 108.26 49.97 108.43 50.34Q108.65 50.8 108.98 51.14Q109.04 51.21 109.12 51.28C109.4 51.54 109.74 51.74 110.12 51.87C110.51 52.01 110.92 52.08 111.35 52.07Q111.93 52.06 112.46 51.87Q112.51 51.85 112.57 51.83C112.95 51.68 113.28 51.47 113.56 51.2C113.83 50.93 114.05 50.61 114.2 50.24C114.36 49.86 114.44 49.45 114.43 48.99Q114.42 48.31 114.16 47.76C113.99 47.39 113.76 47.07 113.48 46.81C113.19 46.55 112.86 46.35 112.47 46.22C112.09 46.08 111.68 46.01 111.24 46.02C110.81 46.03 110.41 46.11 110.02 46.26C109.64 46.41 109.31 46.62 109.04 46.89Q109.01 46.92 108.98 46.95Q108.61 47.33 108.38 47.86ZM128.36 47.51Q128.13 48.07 128.14 48.75C128.15 49.21 128.24 49.62 128.41 49.99C128.58 50.36 128.81 50.67 129.09 50.93C129.38 51.19 129.71 51.39 130.1 51.52C130.49 51.66 130.89 51.73 131.33 51.72C131.76 51.71 132.17 51.63 132.55 51.48C132.93 51.33 133.26 51.12 133.53 50.85C133.81 50.58 134.02 50.26 134.18 49.89C134.34 49.51 134.41 49.1 134.41 48.64Q134.39 47.96 134.13 47.41C133.97 47.04 133.74 46.72 133.46 46.46C133.17 46.2 132.84 46 132.45 45.87C132.06 45.73 131.65 45.66 131.22 45.67C130.79 45.68 130.38 45.76 130 45.91C129.62 46.06 129.29 46.27 129.02 46.54C128.74 46.81 128.52 47.13 128.36 47.51ZM109.73 49.72C109.65 49.51 109.61 49.3 109.61 49.07C109.6 48.85 109.63 48.63 109.7 48.42C109.78 48.22 109.89 48.03 110.03 47.87C110.18 47.7 110.36 47.57 110.56 47.47Q110.87 47.32 111.27 47.32Q111.66 47.31 111.98 47.45C112.19 47.54 112.37 47.67 112.51 47.82C112.67 47.98 112.78 48.16 112.86 48.37C112.94 48.58 112.99 48.79 112.99 49.02C112.99 49.24 112.96 49.46 112.88 49.67C112.81 49.87 112.7 50.06 112.55 50.22C112.41 50.39 112.24 50.52 112.03 50.62Q111.72 50.77 111.33 50.77Q110.93 50.78 110.62 50.64C110.41 50.55 110.23 50.42 110.07 50.27C109.92 50.11 109.81 49.93 109.73 49.72ZM129.7 49.37C129.63 49.16 129.59 48.95 129.58 48.73C129.58 48.5 129.61 48.28 129.68 48.08C129.76 47.87 129.87 47.68 130.01 47.52C130.16 47.36 130.33 47.22 130.54 47.12Q130.85 46.98 131.24 46.97Q131.64 46.96 131.96 47.1C132.16 47.19 132.34 47.32 132.49 47.47C132.64 47.63 132.76 47.81 132.84 48.02C132.92 48.23 132.96 48.44 132.97 48.67C132.97 48.89 132.93 49.11 132.86 49.32C132.79 49.53 132.68 49.71 132.53 49.87C132.39 50.04 132.22 50.17 132.01 50.27Q131.7 50.42 131.31 50.42Q130.91 50.43 130.59 50.29C130.39 50.2 130.2 50.07 130.05 49.92C129.9 49.76 129.79 49.58 129.7 49.37Z" fill="#3F8CFF" fillOpacity="1.000000" fillRule="evenodd"/>
			<path id="In Progress" d="M161.61 43.81L160.1 43.83L160.25 52.33L161.76 52.3L161.61 43.81ZM176.77 43.54L173.91 43.59L174.06 52.09L175.58 52.06L175.51 48.54L176.59 48.53C177.04 48.52 177.47 48.48 177.88 48.41C178.29 48.34 178.65 48.21 178.96 48.03C179.27 47.84 179.51 47.58 179.69 47.25C179.87 46.92 179.95 46.48 179.94 45.95C179.94 45.47 179.84 45.08 179.66 44.78C179.49 44.46 179.25 44.21 178.96 44.03C178.67 43.84 178.33 43.71 177.95 43.64C177.57 43.57 177.18 43.53 176.77 43.54ZM177.07 47.2C176.84 47.22 176.62 47.23 176.4 47.23L175.49 47.25L175.45 44.86L176.53 44.84C176.73 44.84 176.94 44.85 177.15 44.87C177.37 44.89 177.57 44.94 177.74 45.02C177.92 45.1 178.07 45.22 178.18 45.38C178.3 45.53 178.36 45.73 178.36 46Q178.37 46.43 178.18 46.67Q178.14 46.73 178.09 46.79Q177.93 46.95 177.71 47.04C177.52 47.13 177.31 47.18 177.07 47.2ZM164.76 46.49L163.39 46.51L163.49 52.27L164.93 52.25L164.88 49.1Q164.87 48.81 164.94 48.55C164.98 48.37 165.06 48.21 165.16 48.08C165.27 47.94 165.4 47.83 165.56 47.75Q165.81 47.62 166.17 47.62C166.42 47.61 166.62 47.67 166.76 47.79C166.91 47.89 167.01 48.04 167.08 48.21C167.16 48.38 167.2 48.56 167.22 48.76C167.24 48.95 167.25 49.13 167.26 49.29L167.31 52.2L168.75 52.18L168.68 48.54Q168.68 48.1 168.56 47.69C168.48 47.42 168.36 47.19 168.19 46.98C168.02 46.77 167.79 46.61 167.52 46.49C167.25 46.36 166.93 46.31 166.54 46.31Q165.82 46.33 165.41 46.66Q165.05 46.94 164.85 47.3Q164.82 47.36 164.8 47.41L164.77 47.41L164.76 46.49ZM182.61 46.18L181.17 46.2L181.27 51.96L182.71 51.94L182.65 48.85C182.65 48.77 182.66 48.65 182.69 48.49C182.73 48.33 182.8 48.17 182.9 48.01C183.01 47.85 183.16 47.7 183.36 47.58C183.57 47.45 183.84 47.38 184.17 47.37Q184.34 47.37 184.51 47.4C184.63 47.42 184.75 47.44 184.87 47.47L184.85 46.08C184.76 46.05 184.67 46.04 184.58 46.02C184.5 46.01 184.42 46 184.33 46Q183.86 46.01 183.49 46.2Q183.4 46.24 183.32 46.3C183.02 46.49 182.8 46.75 182.65 47.09L182.62 47.09L182.61 46.18ZM185.6 47.77Q185.37 48.32 185.38 49.01C185.39 49.46 185.48 49.88 185.64 50.25C185.82 50.62 186.05 50.93 186.33 51.19C186.62 51.45 186.95 51.65 187.34 51.78C187.72 51.92 188.13 51.98 188.56 51.98C189 51.97 189.4 51.89 189.78 51.74C190.17 51.59 190.49 51.38 190.77 51.11C191.05 50.84 191.26 50.52 191.41 50.15C191.57 49.77 191.65 49.35 191.64 48.9Q191.63 48.22 191.37 47.67C191.2 47.29 190.98 46.98 190.69 46.72C190.41 46.46 190.07 46.26 189.69 46.12C189.3 45.99 188.89 45.92 188.46 45.93C188.03 45.94 187.62 46.02 187.24 46.17C186.86 46.32 186.53 46.53 186.25 46.8C185.98 47.07 185.76 47.39 185.6 47.77ZM198.96 51.14L198.87 45.89L197.5 45.92L197.52 46.78L197.49 46.78C197.28 46.43 196.99 46.18 196.64 46.03C196.28 45.87 195.9 45.8 195.49 45.81C195.05 45.82 194.65 45.9 194.3 46.07C193.96 46.23 193.67 46.44 193.42 46.72Q193.37 46.78 193.31 46.85Q193.03 47.22 192.87 47.69C192.75 48.06 192.7 48.46 192.7 48.88C192.71 49.29 192.79 49.67 192.93 50.03C193.07 50.39 193.27 50.69 193.52 50.95Q193.58 51.01 193.64 51.06Q193.99 51.38 194.44 51.57C194.8 51.72 195.19 51.79 195.62 51.78C195.98 51.78 196.33 51.7 196.67 51.56C197.02 51.41 197.29 51.19 197.49 50.91L197.52 50.91L197.52 51.33C197.53 51.62 197.5 51.88 197.44 52.11C197.39 52.35 197.29 52.56 197.15 52.73Q196.95 52.98 196.59 53.13C196.36 53.23 196.08 53.29 195.73 53.29C195.32 53.3 194.96 53.23 194.65 53.1C194.33 52.96 194.03 52.76 193.74 52.5L192.9 53.69C193.31 54.04 193.76 54.28 194.24 54.41C194.72 54.54 195.23 54.6 195.77 54.59C196.33 54.58 196.81 54.49 197.22 54.32C197.62 54.16 197.95 53.92 198.21 53.62C198.48 53.33 198.67 52.97 198.79 52.54C198.91 52.12 198.97 51.66 198.96 51.14ZM201.94 45.84L200.5 45.86L200.6 51.62L202.04 51.6L201.99 48.51C201.98 48.43 202 48.31 202.03 48.15C202.06 47.99 202.13 47.83 202.23 47.67C202.34 47.51 202.5 47.37 202.69 47.24C202.9 47.11 203.17 47.04 203.51 47.04Q203.68 47.03 203.84 47.07C203.96 47.08 204.08 47.1 204.21 47.13L204.18 45.74C204.09 45.72 204 45.7 203.92 45.68C203.84 45.67 203.75 45.66 203.66 45.66C203.28 45.67 202.94 45.77 202.65 45.96Q202.52 46.04 202.41 46.15Q202.14 46.39 201.98 46.75L201.95 46.75L201.94 45.84ZM206.68 50.15C206.39 49.91 206.22 49.58 206.16 49.15L210.55 49.07L210.55 48.68Q210.53 47.92 210.32 47.35C210.18 46.96 209.99 46.63 209.75 46.37C209.51 46.11 209.23 45.92 208.89 45.79C208.56 45.65 208.19 45.59 207.79 45.59C207.36 45.6 206.95 45.68 206.57 45.83C206.19 45.98 205.86 46.19 205.59 46.46Q205.56 46.49 205.53 46.52Q205.16 46.9 204.93 47.43C204.78 47.8 204.71 48.21 204.71 48.67C204.72 49.13 204.81 49.54 204.98 49.91Q205.19 50.37 205.53 50.72Q205.59 50.79 205.66 50.85C205.95 51.11 206.28 51.31 206.67 51.45C207.06 51.58 207.47 51.65 207.9 51.64Q208.28 51.63 208.64 51.54Q208.93 51.47 209.2 51.35C209.61 51.17 209.98 50.87 210.31 50.45L209.27 49.68C209.09 49.91 208.87 50.1 208.63 50.26C208.39 50.41 208.09 50.48 207.73 50.49Q207.32 50.5 206.98 50.34Q206.82 50.26 206.68 50.15ZM213.8 46.64C214.27 46.63 214.65 46.82 214.94 47.21L215.88 46.33C215.65 46.01 215.34 45.79 214.96 45.67C214.58 45.54 214.2 45.48 213.82 45.49Q213.63 45.49 213.44 45.51Q213.2 45.55 212.97 45.61C212.69 45.69 212.44 45.8 212.23 45.96C212.02 46.11 211.84 46.31 211.71 46.56C211.59 46.79 211.53 47.07 211.53 47.39Q211.54 47.94 211.78 48.25C211.93 48.45 212.13 48.61 212.36 48.73C212.6 48.84 212.85 48.92 213.11 48.97C213.38 49.01 213.64 49.06 213.87 49.12C214.1 49.18 214.3 49.25 214.45 49.34C214.6 49.43 214.68 49.58 214.68 49.78C214.69 49.89 214.66 49.99 214.59 50.08C214.54 50.16 214.46 50.23 214.37 50.29Q214.34 50.31 214.31 50.32Q214.19 50.38 214.06 50.42C213.95 50.44 213.84 50.46 213.74 50.46C213.43 50.46 213.17 50.4 212.95 50.28C212.74 50.15 212.54 49.98 212.36 49.77L211.41 50.69C211.71 51.02 212.05 51.25 212.43 51.37C212.81 51.49 213.22 51.55 213.67 51.54C213.97 51.53 214.26 51.5 214.56 51.43Q215 51.32 215.34 51.1C215.58 50.95 215.77 50.76 215.91 50.53Q216.13 50.16 216.12 49.65Q216.11 49.08 215.88 48.76C215.72 48.55 215.53 48.39 215.29 48.27C215.06 48.15 214.81 48.06 214.53 48.01C214.27 47.95 214.02 47.89 213.79 47.84C213.55 47.79 213.36 47.72 213.21 47.65C213.05 47.57 212.98 47.44 212.97 47.27C212.97 47.05 213.06 46.89 213.24 46.79C213.42 46.69 213.61 46.64 213.8 46.64ZM219.13 46.55C219.61 46.54 219.98 46.73 220.27 47.12L221.22 46.23C220.98 45.92 220.67 45.7 220.29 45.58C219.91 45.45 219.53 45.39 219.15 45.39Q218.96 45.4 218.77 45.42Q218.53 45.45 218.3 45.52C218.02 45.59 217.77 45.71 217.56 45.87C217.35 46.02 217.18 46.22 217.04 46.46C216.92 46.7 216.86 46.97 216.87 47.29Q216.88 47.85 217.11 48.15C217.26 48.36 217.46 48.52 217.69 48.64C217.93 48.74 218.18 48.82 218.44 48.88C218.71 48.92 218.97 48.97 219.2 49.03C219.43 49.08 219.63 49.15 219.78 49.25C219.93 49.34 220.01 49.49 220.02 49.69C220.02 49.8 219.99 49.9 219.93 49.99C219.87 50.07 219.8 50.14 219.7 50.2Q219.67 50.21 219.64 50.23Q219.52 50.29 219.39 50.32C219.28 50.35 219.17 50.36 219.07 50.36C218.76 50.37 218.5 50.31 218.28 50.19C218.07 50.05 217.88 49.89 217.69 49.68L216.74 50.6C217.05 50.93 217.39 51.15 217.76 51.28C218.14 51.4 218.55 51.45 219 51.45C219.3 51.44 219.59 51.4 219.89 51.33Q220.33 51.23 220.68 51.01C220.91 50.86 221.1 50.67 221.24 50.43Q221.46 50.07 221.45 49.55Q221.44 48.99 221.21 48.67C221.05 48.46 220.86 48.29 220.63 48.18C220.39 48.05 220.14 47.97 219.87 47.91C219.6 47.85 219.35 47.8 219.12 47.75C218.89 47.7 218.69 47.63 218.54 47.55C218.39 47.48 218.31 47.35 218.3 47.17C218.3 46.96 218.39 46.8 218.57 46.7C218.75 46.6 218.94 46.55 219.13 46.55ZM208.68 47.03C208.94 47.26 209.08 47.59 209.09 48.02L206.14 48.07C206.19 47.65 206.34 47.32 206.58 47.07C206.83 46.81 207.18 46.68 207.61 46.68C208.06 46.67 208.42 46.79 208.68 47.03ZM186.94 49.63C186.86 49.42 186.82 49.21 186.82 48.98C186.82 48.76 186.85 48.54 186.92 48.33C186.99 48.12 187.1 47.94 187.24 47.78C187.39 47.61 187.57 47.48 187.78 47.38Q188.09 47.23 188.48 47.23Q188.88 47.22 189.19 47.36C189.4 47.45 189.58 47.57 189.73 47.73C189.88 47.89 190 48.07 190.07 48.28C190.16 48.48 190.2 48.7 190.2 48.92C190.21 49.15 190.17 49.36 190.09 49.57C190.03 49.78 189.92 49.97 189.77 50.13C189.63 50.29 189.45 50.43 189.25 50.53Q188.94 50.67 188.54 50.68Q188.15 50.69 187.83 50.55C187.62 50.46 187.44 50.33 187.28 50.18C187.14 50.02 187.02 49.84 186.94 49.63ZM195.12 47.24C195.33 47.15 195.56 47.1 195.82 47.1C196.34 47.09 196.76 47.24 197.07 47.54C197.38 47.85 197.54 48.26 197.55 48.76C197.55 49 197.52 49.22 197.44 49.43C197.37 49.64 197.25 49.83 197.1 49.98C196.96 50.13 196.78 50.25 196.57 50.34C196.36 50.43 196.13 50.48 195.86 50.48C195.62 50.49 195.4 50.45 195.19 50.36C194.98 50.28 194.8 50.16 194.64 50.01C194.49 49.86 194.37 49.69 194.27 49.49C194.19 49.29 194.15 49.08 194.14 48.84C194.14 48.59 194.17 48.35 194.25 48.15C194.34 47.93 194.45 47.75 194.59 47.6C194.74 47.44 194.92 47.33 195.12 47.24Z" fill="#3F8CFF" fillOpacity="1.000000" fillRule="evenodd"/>
			<path id="In Review" d="M271.75 43.34C271.59 43.51 271.51 43.71 271.51 43.94Q271.51 44.09 271.56 44.22Q271.62 44.4 271.77 44.55C271.95 44.71 272.17 44.79 272.44 44.79C272.7 44.79 272.92 44.7 273.09 44.54C273.27 44.37 273.36 44.16 273.36 43.91C273.35 43.66 273.26 43.46 273.07 43.3C272.89 43.14 272.67 43.06 272.41 43.06C272.14 43.07 271.92 43.16 271.75 43.34ZM238.84 43.73L237.32 43.76L237.47 52.25L238.98 52.23L238.84 43.73ZM254.09 43.47L251.14 43.52L251.29 52.01L252.8 51.99L252.74 48.39L253.84 48.37L255.87 51.93L257.69 51.9L255.37 48.18C256 48.09 256.48 47.83 256.81 47.4C257.15 46.98 257.31 46.46 257.3 45.85C257.29 45.37 257.2 44.97 257.01 44.66C256.83 44.35 256.59 44.11 256.29 43.93Q255.85 43.66 255.27 43.57Q254.7 43.46 254.09 43.47ZM254.54 47.04C254.32 47.05 254.11 47.07 253.89 47.07L252.71 47.09L252.67 44.79L253.98 44.76C254.17 44.76 254.37 44.77 254.57 44.79C254.78 44.81 254.97 44.86 255.14 44.94C255.31 45.01 255.44 45.11 255.55 45.27C255.66 45.42 255.71 45.61 255.72 45.86Q255.72 46.28 255.56 46.53C255.45 46.68 255.3 46.8 255.12 46.88C254.95 46.96 254.75 47.01 254.54 47.04ZM241.98 46.41L240.62 46.44L240.72 52.2L242.16 52.17L242.1 49.03Q242.1 48.74 242.16 48.48C242.21 48.3 242.28 48.14 242.38 48C242.49 47.87 242.63 47.76 242.78 47.67Q243.03 47.55 243.39 47.54C243.64 47.54 243.84 47.59 243.99 47.71C244.13 47.82 244.24 47.96 244.31 48.14C244.38 48.3 244.43 48.49 244.45 48.69C244.47 48.88 244.48 49.05 244.48 49.21L244.53 52.13L245.97 52.11L245.91 48.47Q245.9 48.03 245.78 47.62C245.71 47.35 245.58 47.11 245.41 46.91C245.24 46.7 245.02 46.54 244.74 46.41C244.48 46.29 244.15 46.23 243.77 46.24Q243.05 46.25 242.63 46.58Q242.27 46.86 242.08 47.23Q242.05 47.28 242.02 47.34L242 47.34L241.98 46.41ZM260.34 50.49C260.05 50.25 259.88 49.92 259.82 49.49L264.21 49.41L264.21 49.01Q264.19 48.26 263.98 47.69Q263.78 47.1 263.41 46.71C263.17 46.45 262.89 46.26 262.55 46.13C262.22 45.99 261.85 45.92 261.45 45.93C261.02 45.94 260.61 46.02 260.23 46.17C259.85 46.32 259.52 46.53 259.25 46.8C258.97 47.07 258.75 47.39 258.59 47.77Q258.36 48.32 258.37 49.01C258.38 49.46 258.47 49.88 258.64 50.25C258.81 50.62 259.04 50.93 259.32 51.19C259.61 51.45 259.94 51.65 260.33 51.78C260.72 51.92 261.13 51.98 261.56 51.98C262.01 51.97 262.45 51.87 262.86 51.69C263.27 51.51 263.65 51.2 263.97 50.78L262.93 50.02C262.75 50.25 262.54 50.44 262.29 50.6C262.05 50.74 261.75 50.82 261.39 50.83C260.99 50.84 260.64 50.72 260.34 50.49ZM276.57 50.2C276.28 49.97 276.11 49.64 276.05 49.2L280.44 49.13L280.44 48.73Q280.42 47.98 280.21 47.4C280.07 47.01 279.88 46.69 279.64 46.43C279.4 46.17 279.12 45.97 278.78 45.84C278.45 45.71 278.08 45.64 277.68 45.65C277.25 45.65 276.84 45.73 276.46 45.88C276.08 46.03 275.75 46.24 275.48 46.51Q275.45 46.54 275.42 46.57Q275.04 46.96 274.82 47.49C274.67 47.86 274.59 48.27 274.6 48.73C274.61 49.18 274.7 49.6 274.86 49.97Q275.08 50.42 275.41 50.77Q275.48 50.84 275.55 50.9C275.84 51.16 276.17 51.36 276.56 51.5C276.95 51.64 277.35 51.7 277.79 51.69Q278.17 51.69 278.53 51.6Q278.82 51.53 279.09 51.41C279.5 51.22 279.87 50.92 280.2 50.5L279.16 49.74C278.98 49.96 278.76 50.16 278.52 50.31C278.28 50.46 277.98 50.54 277.62 50.54Q277.21 50.55 276.87 50.39Q276.71 50.32 276.57 50.2ZM266.29 45.99L264.72 46.02L267.17 51.74L268.71 51.71L270.88 45.91L269.4 45.94L267.92 49.99L267.9 49.99L266.29 45.99ZM273.19 45.87L271.75 45.89L271.85 51.65L273.29 51.63L273.19 45.87ZM282.51 45.71L280.95 45.73L283.05 51.46L284.54 51.43L285.69 47.48L285.71 47.48L287.15 51.39L288.57 51.36L290.43 45.57L288.98 45.59L287.85 49.65L287.82 49.65L286.51 45.64L284.95 45.66L283.85 49.72L283.83 49.72L282.51 45.71ZM262.49 47.52Q262.74 47.85 262.76 48.36L259.8 48.41C259.85 47.99 260 47.66 260.24 47.4C260.49 47.15 260.84 47.02 261.27 47.01C261.72 47.01 262.08 47.12 262.34 47.37Q262.42 47.44 262.49 47.52ZM278.57 47.08C278.83 47.32 278.97 47.65 278.98 48.07L276.03 48.12C276.08 47.71 276.23 47.37 276.47 47.12C276.72 46.87 277.06 46.74 277.5 46.73C277.95 46.72 278.31 46.84 278.57 47.08Z" fill="#3F8CFF" fillOpacity="1.000000" fillRule="evenodd"/>
			<path id="Done" d="M324.6 43.49L321.26 43.55L321.41 52.05L324.57 51.99Q325.34 51.98 326.13 51.71C326.66 51.53 327.14 51.26 327.57 50.91C328 50.55 328.35 50.1 328.61 49.57Q329.02 48.76 329 47.66Q328.98 46.58 328.61 45.8C328.36 45.27 328.03 44.83 327.62 44.48C327.22 44.14 326.75 43.89 326.23 43.73C325.71 43.56 325.17 43.48 324.6 43.49ZM325.35 50.45Q324.73 50.62 324.02 50.63L322.89 50.65L322.79 44.89L324.17 44.87Q324.87 44.86 325.45 45.01C325.84 45.11 326.18 45.27 326.47 45.5C326.76 45.72 326.99 46.01 327.15 46.38Q327.4 46.92 327.42 47.69C327.42 48.21 327.34 48.66 327.16 49.03Q327 49.37 326.76 49.64Q326.62 49.8 326.45 49.93C326.14 50.16 325.77 50.33 325.35 50.45ZM330.26 47.77Q330.03 48.33 330.04 49.01C330.05 49.47 330.14 49.88 330.3 50.26C330.48 50.62 330.71 50.93 330.99 51.19C331.28 51.45 331.61 51.65 332 51.79C332.38 51.93 332.79 51.99 333.22 51.98Q333.81 51.97 334.33 51.79Q334.39 51.77 334.44 51.75C334.83 51.6 335.15 51.39 335.43 51.12C335.71 50.85 335.92 50.53 336.07 50.16C336.23 49.78 336.31 49.36 336.3 48.9Q336.29 48.22 336.03 47.67C335.86 47.3 335.64 46.98 335.35 46.73C335.07 46.47 334.73 46.27 334.35 46.13C333.96 45.99 333.55 45.93 333.12 45.94C332.69 45.94 332.28 46.02 331.9 46.17C331.52 46.32 331.19 46.53 330.91 46.8C330.64 47.07 330.42 47.4 330.26 47.77ZM338.97 45.98L337.6 46L337.7 51.76L339.14 51.74L339.09 48.59Q339.08 48.3 339.15 48.04Q339.21 47.8 339.34 47.6Q339.36 47.58 339.37 47.57C339.48 47.43 339.61 47.32 339.77 47.24C339.94 47.15 340.14 47.11 340.38 47.11C340.63 47.1 340.83 47.16 340.97 47.28Q341.06 47.34 341.13 47.43Q341.23 47.55 341.29 47.7C341.37 47.87 341.41 48.05 341.43 48.25C341.45 48.44 341.46 48.62 341.47 48.78L341.52 51.69L342.96 51.67L342.89 48.03C342.89 47.74 342.85 47.45 342.77 47.18C342.69 46.91 342.57 46.68 342.4 46.47C342.23 46.27 342 46.1 341.73 45.98C341.46 45.85 341.14 45.8 340.75 45.8C340.27 45.81 339.9 45.93 339.62 46.15Q339.26 46.43 339.06 46.79Q339.03 46.85 339.01 46.9L338.99 46.9L338.97 45.98ZM346.22 50.24C345.93 50.01 345.76 49.68 345.7 49.24L350.09 49.17L350.09 48.77Q350.07 48.02 349.86 47.44Q349.66 46.86 349.29 46.47C349.05 46.21 348.77 46.01 348.43 45.88C348.1 45.75 347.73 45.68 347.33 45.69C346.9 45.7 346.49 45.77 346.11 45.93C345.73 46.08 345.4 46.29 345.13 46.55C344.85 46.82 344.63 47.15 344.47 47.53Q344.24 48.08 344.25 48.77C344.26 49.22 344.35 49.64 344.51 50.01C344.69 50.37 344.92 50.69 345.2 50.95C345.49 51.2 345.82 51.4 346.21 51.54C346.6 51.68 347.01 51.74 347.44 51.73C347.89 51.73 348.33 51.63 348.74 51.45C349.15 51.26 349.52 50.96 349.85 50.54L348.81 49.78C348.63 50.01 348.41 50.2 348.17 50.35C347.93 50.5 347.63 50.58 347.27 50.59C346.87 50.59 346.52 50.48 346.22 50.24ZM348.36 47.28Q348.62 47.61 348.63 48.11L345.68 48.17C345.73 47.75 345.88 47.41 346.12 47.16C346.37 46.91 346.71 46.78 347.15 46.77C347.6 46.76 347.96 46.88 348.22 47.12Q348.3 47.2 348.36 47.28ZM331.6 49.64C331.52 49.43 331.48 49.21 331.48 48.99C331.48 48.77 331.51 48.55 331.58 48.34C331.65 48.13 331.76 47.94 331.9 47.78C332.05 47.62 332.23 47.49 332.44 47.39Q332.75 47.24 333.14 47.23Q333.54 47.22 333.85 47.36C334.06 47.46 334.24 47.58 334.39 47.74C334.54 47.9 334.66 48.08 334.73 48.28C334.82 48.49 334.86 48.71 334.86 48.93C334.87 49.15 334.83 49.37 334.76 49.58C334.69 49.79 334.58 49.98 334.43 50.14C334.29 50.3 334.11 50.43 333.91 50.53Q333.6 50.68 333.2 50.69Q332.81 50.69 332.49 50.56C332.28 50.46 332.1 50.34 331.95 50.18C331.8 50.02 331.68 49.84 331.6 49.64Z" fill="#3F8CFF" fillOpacity="1.000000" fillRule="evenodd"/>
			<path id="Fill 121" d="M162.1 231C161.62 231 161.23 230.62 161.21 230.13L152 38.94C151.97 38.44 152.35 38.02 152.85 38C153.32 37.98 153.76 38.36 153.78 38.86L162.99 230.05C163.02 230.55 162.64 230.97 162.14 230.99L162.1 231Z" fill="#3F8CFF" fillOpacity="1.000000" fillRule="evenodd"/>
			<path id="Fill 122" d="M310.1 231C309.62 231 309.23 230.62 309.21 230.13L300 38.94C299.97 38.44 300.35 38.02 300.85 38C301.31 37.98 301.76 38.36 301.79 38.86L310.99 230.05C311.02 230.55 310.64 230.97 310.14 230.99L310.1 231Z" fill="#3F8CFF" fillOpacity="1.000000" fillRule="evenodd"/>
			<path id="Fill 123" d="M236.1 231C235.62 231 235.23 230.62 235.21 230.13L226 38.94C225.97 38.44 226.35 38.02 226.85 38C227.34 37.98 227.76 38.36 227.79 38.86L236.99 230.05C237.02 230.55 236.64 230.97 236.14 230.99L236.1 231Z" fill="#3F8CFF" fillOpacity="1.000000" fillRule="evenodd"/>
			<path id="Fill 124" d="M367.09 59L88.9 59C88.4 59 88 58.55 88 58C88 57.44 88.4 57 88.9 57L367.09 57C367.59 57 368 57.44 368 58C368 58.55 367.59 59 367.09 59Z" fill="#3F8CFF" fillOpacity="1.000000" fillRule="evenodd"/>
			<path id="Fill 129" d="M155.096 80.1191L157.462 128.727L163.15 128.421C160.592 111.415 158.732 95.0781 158.188 80L155.096 80.1191ZM111.006 81.8208C110.902 95.6519 112.073 114.328 114.857 131.024L155.65 128.825L153.282 80.189L111.006 81.8208Z" clipRule="evenodd" fill="#DADFE4" fillOpacity="1.000000" fillRule="evenodd"/>
			<path id="Fill 130" d="M156.26 129L154 80.07L155.73 80L158 128.9L156.26 129Z" fill="#B0C9DF" fillOpacity="1.000000" fillRule="evenodd"/>
			<path id="Fill 131" d="M164 126.39L115.93 129C113.16 112.31 111.43 96.13 111 80.6L159.06 78C159.6 93.07 161.45 109.4 164 126.39Z" fill="#12499A" fillOpacity="1.000000" fillRule="evenodd"/>
			<path id="Fill 132" d="M224.99 146L176 143.07L176 95L225 97.92L224.99 146Z" fill="#DADFE4" fillOpacity="1.000000" fillRule="evenodd"/>
			<path id="Fill 133" d="M223.43 145L175 142.09L175.57 94L224 96.9L223.43 145Z" fill="#FFFFFE" fillOpacity="1.000000" fillRule="evenodd"/>
			<path id="Fill 134" d="M268.918 110.899L269.292 110.957C268.303 104.708 267.013 98.1543 265.535 91.4121C266.986 98.1143 268.107 104.65 268.918 110.899ZM309.934 135.531C309.964 134.761 309.991 133.998 310.014 133.244L318.324 132.816C318.874 127.716 318.523 121.132 317.645 113.68C318.869 122.148 319.593 130.323 319.064 135.232L309.934 135.531Z" clipRule="evenodd" fill="#DADFE4" fillOpacity="1.000000" fillRule="evenodd"/>
			<path id="Fill 135" d="M271.71 135L318.73 132.57C319.94 121.36 316.82 103 313.3 84L265 87.07C269.02 104.85 271.93 121.5 271.71 135Z" fill="#6D5DD3" fillOpacity="1.000000" fillRule="evenodd"/>
			<path id="Fill 136" d="M159.429 161.173L161.754 208.941L187.1 206.366C186.972 195.069 181.162 168.833 177.717 159L159.429 161.173ZM137.554 211.401C136.176 197.946 135.968 182.069 131 164.551L157.622 161.388L159.946 209.125L137.554 211.401Z" clipRule="evenodd" fill="#DADFE4" fillOpacity="1.000000" fillRule="evenodd"/>
			<path id="Fill 137" d="M160.25 209L158 161.21L159.75 161L162 208.81L160.25 209Z" fill="#B0C9DF" fillOpacity="1.000000" fillRule="evenodd"/>
			<path id="Fill 138" d="M139.15 210L186.94 204.84C187.53 193.66 183.43 175.64 178.9 157L131 162.65C134.87 180.1 138.63 196.61 139.15 210Z" fill="#FDC748" fillOpacity="1.000000" fillRule="evenodd"/>
			<path id="Fill 139" d="M306.088 166.388L258 157.37C261.146 144.436 263.079 127.978 262.982 110L269.067 110.953C270.291 120.379 270.809 129.155 270.688 136.873L294.895 136.082C295.509 136.919 296.106 137.664 296.755 138.422C297.464 139.255 298.185 140.084 298.948 140.88C300.475 142.471 302.116 143.983 303.94 145.393C304.321 145.68 304.709 145.965 305.107 146.246L306.088 166.388ZM309.913 139.292C309.414 139.062 308.912 138.811 308.413 138.545C307.774 138.21 307.135 137.852 306.496 137.474L306.41 135.705L310.083 135.585C310.035 136.806 309.978 138.046 309.913 139.292ZM303.816 135.79C304.085 135.967 304.354 136.143 304.623 136.316L304.596 135.764L303.816 135.79ZM306.983 147.474L307.633 160.817C308.307 157.309 308.84 153.106 309.246 148.675C308.445 148.306 307.696 147.902 306.983 147.474Z" clipRule="evenodd" fill="#DADFE4" fillOpacity="1.000000" fillRule="evenodd"/>
			<path id="Fill 140" d="M305.027 136.611C305.65 137.012 306.275 137.399 306.9 137.769L306.814 136L305 136.059L305.027 136.611ZM306.624 166.708L306.492 166.683L305.511 146.541C306.112 146.964 306.734 147.377 307.387 147.769L308.037 161.112C307.621 163.279 307.151 165.18 306.624 166.708Z" clipRule="evenodd" fill="#B0C9DF" fillOpacity="1.000000" fillRule="evenodd"/>
			<path id="Fill 141" d="M269 111C270.224 120.426 270.742 129.202 270.621 136.92L294.828 136.129C294.761 136.038 294.695 135.947 294.628 135.854L296.564 134.041L271.451 135.333C271.565 128.054 270.768 119.858 269.374 111.058L269 111ZM306.236 133.543L306.343 135.752L310.016 135.632C310.046 134.862 310.073 134.099 310.096 133.345L306.236 133.543ZM303.749 135.837C303.633 135.76 303.517 135.683 303.402 135.606C302.537 135.046 301.671 134.438 300.821 133.822L304.423 133.637L304.529 135.811L303.749 135.837Z" clipRule="evenodd" fill="#719CC6" fillOpacity="1.000000" fillRule="evenodd"/>
			<path id="Fill 142" d="M304.1 135L304 133.08L305.88 133L306 134.94L304.1 135Z" fill="#83A9CE" fillOpacity="1.000000" fillRule="evenodd"/>
			<path id="Fill 143" d="M271.08 135C271.19 127.8 270.39 119.7 269 111L309.78 117.29C310.03 120.85 310.07 126.61 309.87 133.03L305.99 133.23L304.17 133.32L300.56 133.5C299.79 132.95 299.03 132.4 298.3 131.86L296.29 133.72L271.08 135Z" fill="#3769A4" fillOpacity="1.000000" fillRule="evenodd"/>
			<path id="Fill 144" d="M259 155.16L305.78 163C309.4 152.56 310.32 134.38 311 115.49L262.8 108C262.9 125.83 262.14 142.33 259 155.16Z" fill="#FFFFFE" fillOpacity="1.000000" fillRule="evenodd"/>
			<path id="Fill 145" d="M372.86 112C373.8 113.01 374.6 113.91 375.42 114.89C376.23 115.86 377.02 116.83 377.8 117.82C379.35 119.8 380.84 121.84 382.24 123.96C383.63 126.08 385 128.23 386.22 130.52C387.45 132.8 388.61 135.14 389.56 137.66L389.92 138.6L390.01 138.84L390.13 139.18L390.35 139.87C390.46 140.31 390.56 140.73 390.64 141.15C390.71 141.55 390.78 141.96 390.83 142.35C391.01 143.89 391.02 145.31 390.97 146.67C390.89 149.39 390.53 151.95 390.12 154.46C389.23 159.47 387.95 164.24 386.3 169L381.11 167.78C381.49 163.05 381.85 158.23 381.98 153.59C382.06 151.27 382.02 148.97 381.87 146.83C381.79 145.77 381.65 144.75 381.45 143.9L381.3 143.3L381.13 142.83L380.57 141.66C378.68 137.77 376.18 133.94 373.51 130.23C372.17 128.37 370.76 126.55 369.34 124.74C368.63 123.83 367.9 122.93 367.16 122.05L365 119.48L372.86 112Z" fill="#BE5B52" fillOpacity="1.000000" fillRule="evenodd"/>
			<path id="Fill 146" d="M381.71 166L378 169.86L385.24 174C385.24 174 387.75 170.77 386.77 167.47L381.71 166Z" fill="#BD5B52" fillOpacity="1.000000" fillRule="evenodd"/>
			<path id="Fill 147" d="M373 175.63L380.01 178L385 174.08L377.79 170L373 175.63Z" fill="#BD5B52" fillOpacity="1.000000" fillRule="evenodd"/>
			<path id="Fill 148" d="M392.97 192L347 181.97C349.45 165.84 352.73 150.45 357.02 136L403 146.02C398.94 160.08 395.73 175.64 392.97 192Z" fill="#3769A4" fillOpacity="1.000000" fillRule="evenodd"/>
			<path id="Fill 149" d="M386.69 193L342 179.69L355.3 135L400 148.3L386.69 193Z" fill="#FFFFFE" fillOpacity="1.000000" fillRule="evenodd"/>
			<path id="Fill 150" d="M345.99 82.02C345.97 82.57 345.73 83.01 345.45 82.99C345.18 82.98 344.97 82.52 345 81.97C345.02 81.42 345.26 80.98 345.54 81C345.81 81.01 346.02 81.47 345.99 82.02Z" fill="#132529" fillOpacity="1.000000" fillRule="evenodd"/>
			<path id="Fill 151" d="M346 83C346 83 344.52 86.56 343 88.24C343.96 89.32 345.71 88.92 345.71 88.92L346 83Z" fill="#A92D2F" fillOpacity="1.000000" fillRule="evenodd"/>
			<path id="Fill 152" d="M348.74 78.99L348.93 78.9C349.03 78.79 349.01 78.64 348.88 78.55C347.58 77.71 346.26 78.07 346.2 78.08C346.05 78.13 345.96 78.27 346.01 78.4C346.06 78.52 346.23 78.59 346.39 78.55C346.43 78.54 347.47 78.27 348.51 78.94C348.57 78.99 348.66 79 348.74 78.99Z" fill="#132529" fillOpacity="1.000000" fillRule="evenodd"/>
			<path id="Fill 153" d="M364.16 91C363.06 96.16 362.33 103.31 366 106.76C366 106.76 364.48 112 354.63 112C343.81 112 349.48 107.4 349.48 107.4C354 106.04 354.03 101.04 353.05 97.03L364.16 91Z" fill="#BD5B52" fillOpacity="1.000000" fillRule="evenodd"/>
			<path id="Fill 154" d="M339.105 354.191C339.398 354.605 340.289 354.733 341.212 354.733C342.072 354.733 342.962 354.624 343.422 354.531L343.559 354.392L343.477 354.216C343.372 354.155 340.875 352.721 339.674 353.048C339.427 353.114 339.244 353.249 339.129 353.446C338.923 353.799 339.002 354.046 339.105 354.191ZM340.089 353.338C339.969 353.338 339.858 353.35 339.759 353.377C339.601 353.419 339.491 353.498 339.422 353.615C339.299 353.827 339.341 353.932 339.384 353.992C339.713 354.458 341.532 354.468 342.872 354.278C342.209 353.937 340.93 353.338 340.089 353.338Z" clipRule="evenodd" fill="#3769A4" fillOpacity="1.000000" fillRule="evenodd"/>
			<path id="Fill 155" d="M343.43 354.243L343.5 354.258L343.6 354.226L343.671 354.071C343.665 353.989 343.496 352.051 342.59 351.3C342.313 351.07 342 350.972 341.649 351.007C341.18 351.055 341.042 351.292 341.008 351.484C340.866 352.297 342.566 353.854 343.43 354.243ZM341.781 351.341L341.679 351.347C341.373 351.377 341.351 351.498 341.344 351.538C341.259 352.026 342.413 353.249 343.292 353.781C343.207 353.216 342.965 352.056 342.371 351.563C342.191 351.414 341.998 351.341 341.781 351.341Z" clipRule="evenodd" fill="#3769A4" fillOpacity="1.000000" fillRule="evenodd"/>
			<path id="Fill 156" d="M352 354L344.52 354L344 337L351.47 337L352 354Z" fill="#BD5B52" fillOpacity="1.000000" fillRule="evenodd"/>
			<path id="Fill 157" d="M344.28 353L352.05 353C352.34 353 352.59 353.2 352.65 353.48L353.97 359.73C354.11 360.38 353.6 360.99 352.93 360.98C350.13 360.93 346.09 360.77 342.57 360.77C338.45 360.77 335.85 361 331.02 361C328.1 361 327.33 358.07 328.56 357.81C334.13 356.61 337.72 356.48 342.56 353.54C343.09 353.23 343.67 353 344.28 353Z" fill="#0A1629" fillOpacity="1.000000" fillRule="evenodd"/>
			<path id="Fill 158" d="M369.22 108C376.22 108.07 386 125.27 386 125.27L375.15 136C375.15 136 368.05 132.79 364.1 124.96C359.96 116.76 362.07 107.92 369.22 108Z" fill="#3769A4" fillOpacity="1.000000" fillRule="evenodd"/>
			<path id="Fill 159" d="M375.37 136C375.61 130.86 376.05 125.45 376.77 119.96C376.84 119.44 376.87 118.93 376.87 118.42C376.87 114.55 374.96 111.04 372 109C378.15 112.75 385 125.73 385 125.73L383.49 127.34L375.37 136Z" fill="#3A81EB" fillOpacity="1.000000" fillRule="evenodd"/>
			<path id="Fill 160" d="M336.44 115.01C334.88 122.73 333.76 138.59 337.6 170L375.79 170C376.09 164.91 373.63 142.71 376.89 118.87C377.77 112.43 372.95 106.61 366.48 106.26C366.34 106.25 366.2 106.24 366.06 106.23C361.18 106 354.12 105.84 349.82 106.23C348.03 106.4 346.27 106.66 344.7 106.93C340.55 107.67 337.27 110.88 336.44 115.01Z" fill="#3769A4" fillOpacity="1.000000" fillRule="evenodd"/>
			<path id="Fill 161" d="M376.094 170.43L337.608 170.43C336.159 158.574 335.411 148.921 335.126 141.074C338.998 140.097 343.394 136.67 344.914 132.451C348.374 128.946 352.691 123.406 353.097 117.287Q353.13 116.786 353.13 116.294C353.128 111.202 350.475 106.892 345.886 106.892C345.166 106.892 344.399 106.998 343.587 107.224C343.969 107.109 344.361 107.016 344.76 106.945C346.342 106.666 348.117 106.405 349.924 106.241C351.834 106.067 354.286 106 356.853 106C360.103 106 363.538 106.108 366.284 106.24C366.425 106.247 366.565 106.254 366.706 106.262C372.717 106.594 377.308 111.59 377.305 117.436C377.304 117.938 377.27 118.447 377.2 118.959C375.856 128.779 375.476 138.322 375.476 146.523C375.476 157.189 376.119 165.583 376.119 169.355C376.119 169.77 376.111 170.13 376.094 170.43ZM335 136C335.013 137.082 335.036 138.203 335.07 139.367C335.04 138.129 335.042 136.97 335.101 135.895C335.067 135.93 335.033 135.965 335 136Z" clipRule="evenodd" fill="#3F8CFF" fillOpacity="1.000000" fillRule="evenodd"/>
			<path id="Fill 162" d="M334.52 142C334.5 141.31 334.48 140.64 334.47 140C334.48 140.65 334.5 141.32 334.52 142Z" fill="#9AA9B8" fillOpacity="1.000000" fillRule="evenodd"/>
			<path id="Fill 163" d="M335.07 142C335.05 141.39 335.03 140.8 335.02 140.21C334.98 138.92 334.99 137.71 335.05 136.59C335.33 136.28 335.62 135.98 335.9 135.67C336.15 135.39 336.4 135.11 336.66 134.83L340.56 137.04C340.56 137.04 342.57 135.52 345 133C343.45 137.4 339 140.98 335.07 142Z" fill="#3576D6" fillOpacity="1.000000" fillRule="evenodd"/>
			<path id="Fill 164" d="M351.19 345.58L351.19 345.58L350.93 337L350.94 337L351.19 345.58Z" fill="#BEBFBB" fillOpacity="1.000000" fillRule="evenodd"/>
			<path id="Fill 165" d="M351 346L344.24 346L344.24 345.98L344 337L350.75 337L351 346Z" fill="#914642" fillOpacity="1.000000" fillRule="evenodd"/>
			<path id="Fill 166" d="M365.93 81.79C365.1 88.85 364.98 93.01 361.15 96.5C355.39 101.75 346.69 98.15 345.36 91.02C344.16 84.6 345.71 74.13 352.91 71.6C359.99 69.1 366.75 74.73 365.93 81.79Z" fill="#BD5B52" fillOpacity="1.000000" fillRule="evenodd"/>
			<path id="Fill 167" d="M351.07 84.31C348.85 84.81 347.85 79.65 350.1 77.67C348.1 76.68 345.2 75.25 344.23 73.09C343.12 70.61 346.14 67.64 348.73 67.77C347.89 66.12 349.74 61.7 355.02 63.36C360.43 65.07 362.8 67.6 362.8 67.6C362.8 67.6 364.55 61.88 368.22 66.5C371.49 70.61 370.2 74.12 370.2 74.12C370.2 74.12 375.04 78.66 373.79 82.04C372.54 85.43 369.78 86.62 369.78 86.62C369.78 86.62 370.51 94.58 364.62 96.49C358.72 98.4 355.01 94.46 355.5 92.19C351.69 92.4 347.81 87.37 351.07 84.31Z" fill="#233862" fillOpacity="1.000000" fillRule="evenodd"/>
			<path id="Fill 168" d="M353.96 84.28C353.71 86.24 352.68 88.04 351.52 89.18C349.77 90.91 348.14 89.67 348.01 87.44C347.88 85.43 348.65 82.11 350.71 81.23C352.74 80.36 354.25 82.04 353.96 84.28Z" fill="#BD5B52" fillOpacity="1.000000" fillRule="evenodd"/>
			<path id="Fill 169" d="M413 344.67L406.48 347L400 330.32L406.51 328L413 344.67Z" fill="#BD5B52" fillOpacity="1.000000" fillRule="evenodd"/>
			<path id="Fill 170" d="M401.449 348.684C401.938 348.828 402.715 348.378 403.441 347.807C404.117 347.275 404.748 346.639 405.053 346.282L405.074 346.088L404.902 346C404.781 346.018 401.933 346.435 401.19 347.434C401.037 347.638 400.976 347.858 401.008 348.084C401.064 348.488 401.279 348.634 401.449 348.684ZM401.695 347.404C401.601 347.479 401.521 347.558 401.46 347.64C401.362 347.771 401.324 347.9 401.343 348.035C401.377 348.277 401.475 348.334 401.546 348.355C402.092 348.517 403.528 347.401 404.464 346.424C403.731 346.565 402.356 346.885 401.695 347.404Z" clipRule="evenodd" fill="#3769A4" fillOpacity="1.000000" fillRule="evenodd"/>
			<path id="Fill 171" d="M404.673 346.795L404.737 346.765L404.796 346.677L404.757 346.512C404.701 346.451 403.37 345.031 402.193 345C401.834 344.992 401.526 345.108 401.273 345.354C400.934 345.681 400.972 345.953 401.064 346.124C401.455 346.852 403.754 347.023 404.673 346.795ZM401.583 345.534L401.506 345.602C401.284 345.815 401.342 345.923 401.361 345.958C401.596 346.396 403.259 346.644 404.279 346.519C403.862 346.125 402.955 345.363 402.183 345.344C401.951 345.337 401.753 345.4 401.583 345.534Z" clipRule="evenodd" fill="#3769A4" fillOpacity="1.000000" fillRule="evenodd"/>
			<path id="Fill 172" d="M405.51 344.89L411.58 340.13C411.8 339.95 412.13 339.95 412.36 340.12L417.58 344C418.12 344.4 418.14 345.17 417.61 345.58C415.39 347.26 411.1 350.7 408.48 353.01C405.42 355.72 407.81 353.91 404.22 357.08C402.05 359 399.39 357.44 400.12 356.45C403.4 351.93 404.1 349.24 404.53 346.35C404.61 345.76 405.03 345.26 405.51 344.89Z" fill="#0A1629" fillOpacity="1.000000" fillRule="evenodd"/>
			<path id="Fill 173" d="M300 132.81L297.31 127L290 131.55C290 131.55 292.41 136.5 297.4 135.95L300 132.81Z" fill="#BD5B52" fillOpacity="1.000000" fillRule="evenodd"/>
			<path id="Fill 174" d="M290.62 125.59L288.87 127.07C287.74 128.03 287.7 129.74 288.79 130.75L290.15 132L298 127.24L293.29 125.21C292.4 124.82 291.36 124.97 290.62 125.59Z" fill="#BD5B52" fillOpacity="1.000000" fillRule="evenodd"/>
			<path id="Fill 175" d="M407.826 333.001L409.499 337.331L409.502 337.33L407.829 333L407.826 333.001Z" clipRule="evenodd" fill="#BEBFBB" fillOpacity="1.000000" fillRule="evenodd"/>
			<path id="Fill 176" d="M403.35 340L403.24 339.71L402 336.44L408.26 333L410 337.57L403.35 340Z" fill="#914642" fillOpacity="1.000000" fillRule="evenodd"/>
			<path id="Fill 177" d="M351 171C351 171 363.06 226.41 367.68 246.98C372.73 269.51 399.32 338 399.32 338L411 331.68C411 331.68 398.51 277.95 389.38 248.64C386.07 224.41 375.95 171 375.95 171L351 171Z" fill="#0A1629" fillOpacity="1.000000" fillRule="evenodd"/>
			<path id="Fill 178" d="M396 334.4L398.41 339L413 333.48L411.84 329L396 334.4Z" fill="#3F8CFF" fillOpacity="1.000000" fillRule="evenodd"/>
			<path id="Fill 179" d="M367.61 248C367.53 247.65 367.46 247.32 367.38 247C367.38 247 367.38 247 367.39 247C367.46 247.3 367.53 247.6 367.61 247.91C367.61 247.94 367.61 247.97 367.61 248Z" fill="#A0A29F" fillOpacity="1.000000" fillRule="evenodd"/>
			<path id="Fill 180" d="M367.56 247.79C367.56 247.79 367.56 247.79 367.56 247.79C367.51 247.59 367.47 247.39 367.43 247.2L367.43 247.2C367.47 247.39 367.52 247.59 367.56 247.79Z" fill="#939692" fillOpacity="1.000000" fillRule="evenodd"/>
			<path id="Fill 181" d="M367.9 247L367.9 247C367.89 246.97 367.89 246.94 367.88 246.91C367.64 245.71 367.37 244.4 367.09 243L367.09 243C367.37 244.4 367.64 245.71 367.89 246.92C367.89 246.94 367.9 246.97 367.9 247Z" fill="#1D5697" fillOpacity="1.000000" fillRule="evenodd"/>
			<path id="Fill 182" d="M367 243L366.99 243C366.68 241.45 366.35 239.78 366 238C366.35 239.78 366.68 241.45 367 243Z" fill="#8593A0" fillOpacity="1.000000" fillRule="evenodd"/>
			<path id="Fill 183" d="M367.98 248C367.9 247.67 367.83 247.36 367.76 247.05C367.72 246.85 367.67 246.65 367.63 246.46C367.63 246.44 367.62 246.41 367.62 246.39C367.38 245.29 367.12 244.1 366.85 242.82C366.5 241.17 366.12 239.38 365.71 237.48C363.21 225.7 359.83 209.61 357 196.14C357.28 196.04 357.58 196 357.89 196C358.06 196 358.23 196.01 358.4 196.03C367.14 197.24 368.14 229.18 367.98 248Z" fill="#000000" fillOpacity="1.000000" fillRule="evenodd"/>
			<path id="Fill 184" d="M337.62 171C337.62 171 334.55 224.7 335.05 246.61C335.57 269.39 342 344 342 344L354.23 344C354.23 344 356.23 270.72 357.06 248.35C357.97 223.95 363 171 363 171L337.62 171Z" fill="#0A1629" fillOpacity="1.000000" fillRule="evenodd"/>
			<path id="Fill 185" d="M339 339L339.62 344L354.53 344L355 339.53L339 339Z" fill="#3F8CFF" fillOpacity="1.000000" fillRule="evenodd"/>
			<path id="Fill 186" d="M348 119.36C346.34 122.32 344.44 125.12 342.44 127.82C340.42 130.5 338.24 133.04 335.94 135.45C333.66 137.87 331.25 140.14 328.78 142.31C326.35 144.48 323.72 146.54 321.4 148.44L320.58 149.11L319.91 149.35C318.11 149.99 316.29 150.1 314.73 149.92C313.16 149.74 311.79 149.33 310.55 148.85C308.08 147.86 306.09 146.54 304.25 145.17C302.42 143.77 300.78 142.27 299.25 140.69C298.49 139.9 297.77 139.08 297.06 138.25C296.34 137.41 295.68 136.6 295 135.65L298.94 131.99C300.48 133.12 302.13 134.35 303.78 135.41C305.42 136.49 307.07 137.51 308.72 138.37C310.36 139.24 312.03 139.94 313.5 140.3C314.22 140.48 314.89 140.55 315.39 140.52C315.9 140.49 316.19 140.38 316.34 140.27L314.85 141.18C317.29 138.91 319.5 136.89 321.7 134.76C323.88 132.63 325.97 130.46 327.97 128.23C329.95 125.98 331.86 123.69 333.61 121.31C335.39 118.95 336.99 116.48 338.52 114L348 119.36Z" fill="#BE5B52" fillOpacity="1.000000" fillRule="evenodd"/>
			<path id="Fill 187" d="M352.96 117.24C352.28 127.43 340.4 136 340.4 136L325 127.67C325 127.67 330.67 115.66 338.32 109.99C347.76 102.98 353.48 109.48 352.96 117.24Z" fill="#3769A4" fillOpacity="1.000000" fillRule="evenodd"/>
			<path id="Fill 188" d="M340.4 136L326.81 128.65L325 127.67C325 127.67 330.67 115.66 338.32 109.99C341.15 107.88 343.65 107 345.75 107C350.34 107 352.99 111.24 353 116.26C353 116.58 352.98 116.91 352.96 117.24C352.28 127.43 340.4 136 340.4 136Z" fill="#3F8CFF" fillOpacity="1.000000" fillRule="evenodd"/>
		</g>
	</g>
</svg>
